<svg width="215" height="233" viewBox="0 0 215 233" fill="none" xmlns="http://www.w3.org/2000/svg">
<path opacity="0.55" fill-rule="evenodd" clip-rule="evenodd" d="M1 232.02V224.457H67.9295V204.365H1V195.94H67.9295V164.708H1V156.027V108.69V68.4892H67.9295V37.4182H1V28.1155H67.9295V8.83642H1V1H80.5274V68.4892H100.913V1H113.023V68.4892H133.936V1H213.452V8.83642H145.589V28.1155H213.452V37.4182H145.589V68.4892H213.452V164.708H145.589V195.94H213.452V204.365H145.589V224.457H213.452V232.02H133.936V164.708H113.023V232.02H100.913V164.708H80.5274V232.02H1ZM133.936 120.852H80.5274V156.027H133.936V120.852ZM35.2706 156.027V77.1467H9.94844V156.027H35.2706ZM170.563 156.027V77.1467H145.589V156.027H170.563ZM205.519 156.027V77.1467H180.178V156.027H205.519ZM67.9295 156.027V77.1467H43.9594V156.027H67.9295ZM133.936 111.699V77.1467H80.5274V111.699H133.936Z" fill="black" stroke="black" stroke-width="1.24724"/>
</svg>
