<svg width="154" height="166" viewBox="0 0 154 166" fill="none" xmlns="http://www.w3.org/2000/svg">
<path d="M19.3333 9.33332C18.9333 9.99999 16.8 10.6667 14.5333 10.6667C9.86668 10.6667 9.20001 14 13.7333 15.2C15.3333 15.6 24.6667 16 34.4 16H52.1333L51.7333 20.9333L51.3333 26L30.4 26.4L9.33334 26.8V30V33.3333H30.6667H52.1333L51.7333 42.2667L51.3333 51.3333L30.4 51.2L9.33334 51.0667V82.8V114.667H30.6667H52V123.333V132H30.6667H9.33334V136V140H30.8H52.1333L51.7333 144.933L51.3333 150L30.4 150.4L9.33334 150.8V154V157.333H35.3333H61.3333V136V114.667H66.6667H72V136V157.333H77.3333H82.6667V135.867V114.533L87.7333 114.933L92.6667 115.333V136.4V157.333H119.067H145.333V154V150.8L124.4 150.4L103.333 150L102.933 144.933L102.533 140H123.867H145.333V136V132H124H102.667V123.333V114.667H124H145.333V82.8V50.9333L124.4 51.2L103.333 51.3333L102.933 42.2667L102.533 33.3333H124H145.333V30V26.8L124.4 26.4L103.333 26L102.933 20.9333L102.533 16H123.867H145.333V12V7.99999L119.2 8.26665L92.9333 8.66665L92.8 30L92.6667 51.3333H88H83.3333L82.9333 29.6L82.6667 7.99999H77.3333H72V29.3333C72 42.5333 71.4667 50.6667 70.6667 50.8C70 50.9333 67.7333 51.0667 65.7333 51.2L62 51.3333L61.6 29.6L61.3333 7.99999H40.6667C28.4 7.99999 19.8667 8.53332 19.3333 9.33332ZM30.6667 82.6667V106.667H23.3333H16V83.6C16 70.8 16.4 60 16.9333 59.6C17.3333 59.0667 20.6667 58.6667 24.2667 58.6667H30.6667V82.6667ZM52 82.6667V106.667H45.3333H38.6667V82.6667V58.6667H45.3333H52V82.6667ZM93.0667 68.9333L93.4667 78.6667H77.3333H61.3333V69.6C61.3333 64.5333 61.7333 60 62.2667 59.4667C62.8 59.0667 69.8667 58.8 77.8667 58.9333L92.6667 59.3333L93.0667 68.9333ZM116 82.6667V106.667H109.333H102.667V82.6667V58.6667H109.333H116V82.6667ZM138.4 82.9333L138.667 106.667H131.333H124V82.5333V58.5333L131.067 58.9333L138 59.3333L138.4 82.9333ZM93.0667 96.9333L93.4667 106.667H77.3333H61.3333V97.6C61.3333 92.5333 61.7333 88 62.2667 87.4667C62.8 87.0667 69.8667 86.8 77.8667 86.9333L92.6667 87.3333L93.0667 96.9333Z" fill="black"/>
</svg>
