<svg width="105" height="93" viewBox="0 0 105 93" fill="none" xmlns="http://www.w3.org/2000/svg">
<path opacity="0.55" fill-rule="evenodd" clip-rule="evenodd" d="M20.7637 92.2268C15.8169 92.1472 9.38613 92.021 6.47319 91.9465L1.17693 91.8109L1.337 90.5384C1.42504 89.8385 1.52085 89.2465 1.5499 89.2228C1.57897 89.1991 8.81638 89.1176 17.6331 89.0415L33.6634 88.9032V84.9818V81.0604H17.3317H1V79.7414V78.4224L6.97645 78.2976C10.2635 78.229 17.7193 78.1148 23.5448 78.0438L34.1368 77.9148V73.2517C34.1368 70.687 34.0679 67.925 33.9837 67.1138L33.8306 65.639H17.4996H1.1685L1.31846 62.6993C1.40094 61.0824 1.5393 52.5687 1.62592 43.7799L1.7834 27.8002L17.7234 27.9411L33.6634 28.0821V21.6364V15.1908L17.6276 15.0493C8.80785 14.9715 1.55218 14.8758 1.50384 14.8368C1.45549 14.7977 1.49228 14.1854 1.58553 13.476L1.75513 12.1862L17.7911 12.3273L33.8272 12.4683L33.982 10.9769C34.0671 10.1566 34.1368 8.3708 34.1368 7.00851V4.53162H17.6867H1.23669V2.7658V1L8.86999 1.12597C21.3101 1.33127 38.9842 1.68526 39.0504 1.73044C39.0843 1.75353 39.2205 7.35941 39.3531 14.188C39.4858 21.0165 39.6528 26.9817 39.7242 27.4439L39.8541 28.2842L43.3269 28.1468C45.237 28.0712 47.4388 27.9533 48.2199 27.8848L49.64 27.7601L49.5501 21.0132C49.5006 17.3025 49.3941 11.3302 49.3134 7.74149L49.1666 1.2166L51.1785 1.34043C52.2851 1.40854 53.6165 1.5104 54.1372 1.56678L55.0839 1.66929L55.0114 14.9557L54.9388 28.242H60.4245H65.9103L65.7565 15.7603C65.6719 8.89539 65.5421 2.77984 65.4681 2.17021L65.3335 1.0618H73.7204C78.3332 1.0618 86.9178 1.1193 92.7973 1.1896L103.487 1.31742V3.04929V4.78116L87.0372 4.63974L70.5872 4.49833V6.89548C70.5872 8.21392 70.6569 9.96385 70.742 10.7842L70.8968 12.2758L87.1921 12.1345L103.487 11.9932V13.4671V14.9411H87.2739H71.0606L71.062 19.9048C71.063 22.6349 71.1325 25.5915 71.217 26.4751L71.3705 28.0817L87.511 27.941L103.651 27.8003L103.81 44.4546C103.897 53.6145 104.036 62.1412 104.119 63.4028L104.269 65.6967L87.6646 65.5552L71.0606 65.4137L71.0616 68.4661C71.062 70.1448 71.1313 72.8727 71.2156 74.5279L71.3689 77.5375L74.4693 77.6583C76.1746 77.7248 83.3746 77.8772 90.4694 77.997C97.5643 78.1168 103.386 78.2261 103.407 78.24C103.429 78.2539 103.524 78.9939 103.619 79.8844L103.791 81.5037L87.1894 81.3622L70.5874 81.2207V85.1886V89.1566H78.9513C83.5514 89.1566 91.0072 89.214 95.5196 89.2842L103.724 89.4118V90.8264V92.2409H84.4338H65.1435V78.9105V65.5801L62.4807 65.705C61.0162 65.7738 58.886 65.8304 57.7469 65.8309L55.6759 65.8316V79.059V92.2864L53.6048 92.1588C52.4657 92.0886 51.1077 91.985 50.587 91.9286L49.6402 91.8261L49.7157 78.7085L49.7911 65.5909L45.5736 65.7184C43.2539 65.7886 40.9511 65.8945 40.4562 65.9538L39.5564 66.0617L39.7014 78.8139C39.7811 85.8276 39.8952 91.7613 39.9548 91.9998L40.0633 92.4336L34.9107 92.4025C32.0768 92.3854 25.7106 92.3064 20.7637 92.2268ZM65.38 55.9042V48.6754L59.2852 48.6751C55.9331 48.6749 50.0581 48.6172 46.2297 48.5469L39.269 48.4192L39.4272 53.6074C39.5142 56.461 39.6527 59.727 39.7349 60.8652L39.8843 62.9346L47.0107 62.9886C50.9303 63.0182 56.6668 63.0628 59.7586 63.0877L65.38 63.133V55.9042ZM11.3326 62.6405C16.6248 62.285 17.4673 62.1378 17.6525 61.5368C17.7264 61.2972 17.8616 54.3445 17.9529 46.0864L18.1191 31.0718L15.536 31.1943C14.1153 31.2617 11.258 31.3761 9.18638 31.4485L5.41985 31.5802L5.57513 46.8847C5.67667 56.8928 5.81579 62.3192 5.97714 62.5647C6.27276 63.0146 5.85281 63.0087 11.3326 62.6405ZM81.5064 62.4261L83.0763 62.3108L83.2552 52.1678C83.4336 42.0454 83.2727 32.1351 82.9254 31.8522C82.6561 31.6328 79.5136 31.3763 75.1823 31.2201L71.3748 31.0827L71.2177 36.055C71.0158 42.4435 71.0158 54.7381 71.2175 59.2749L71.3745 62.8037L75.6555 62.6726C78.01 62.6004 80.643 62.4895 81.5064 62.4261ZM95.5422 62.2508C97.6163 62.0965 99.3527 61.9381 99.4008 61.8989C99.5824 61.751 99.9228 51.6744 100.083 41.7178L100.248 31.3868L98.3767 31.2628C97.3472 31.1945 94.5779 31.0811 92.2227 31.0108L87.9406 30.8829L87.7864 34.8154C87.7015 36.9782 87.5611 44.1581 87.4742 50.7706L87.3162 62.7933L89.5436 62.6623C90.7687 62.5903 93.4681 62.4051 95.5422 62.2508ZM28.4562 62.2974L33.0717 62.0728L33.218 59.8559C33.2985 58.6367 33.3784 51.6197 33.3956 44.2626L33.4267 30.8862L30.6456 31.0215C26.1357 31.241 23.0515 31.5973 22.6203 31.9485C22.1087 32.3651 21.9103 36.4628 21.6866 51.2296L21.515 62.5547L22.6778 62.5384C23.3174 62.5294 25.9177 62.421 28.4562 62.2974ZM54.4922 45.0087C58.2023 44.9083 62.1166 44.8248 63.1906 44.8231L65.1433 44.82V39.9344C65.1433 37.2473 65.0739 34.1245 64.989 32.9948L64.8347 30.9407L60.3143 30.9462C55.6063 30.9519 40.2761 31.2739 40.1588 31.3695C40.0292 31.475 39.5699 38.9674 39.5164 41.8485C39.4733 44.1671 39.5326 44.8259 39.8091 45.099C40.1252 45.4111 40.492 45.4303 43.9512 45.3163C46.0386 45.2474 50.7821 45.1091 54.4922 45.0087Z" fill="black" stroke="black" stroke-width="0.49256"/>
</svg>
